<svg xmlns="http://www.w3.org/2000/svg" width="640" height="640" viewBox="0 0 640 640">
  <rect width="640" height="640" fill="#1677ff"/>
  <g fill="#ffffff">
    <path d="M175 120h210a44 44 0 0 1 44 44v100a44 44 0 0 1-44 44H270l-72 56v-56h-23a44 44 0 0 1-44-44V164a44 44 0 0 1 44-44z" opacity="0.98"/>
    <path d="M462 200h-12v64a80 80 0 0 1-80 80h-90v6a44 44 0 0 0 44 44h86l72 56v-56h1a44 44 0 0 0 44-44V244a44 44 0 0 0-44-44z" opacity="0.7"/>
  </g>
  <g fill="#1677ff">
    <circle cx="222" cy="214" r="18"/>
    <circle cx="280" cy="214" r="18"/>
    <circle cx="338" cy="214" r="18"/>
  </g>
  <text x="320" y="470" text-anchor="middle" font-family="'PingFang SC','Hiragino Sans GB','Microsoft YaHei',sans-serif" font-size="76" font-weight="700" fill="#ffffff">多模型辩论</text>
  <text x="320" y="540" text-anchor="middle" font-family="'PingFang SC','Hiragino Sans GB','Microsoft YaHei',sans-serif" font-size="30" font-weight="400" fill="#ffffff" opacity="0.88">多个大模型辩论 · 收敛出更优答案</text>
</svg>
